<svg width="22" height="13" viewBox="0 0 22 13" fill="none" xmlns="http://www.w3.org/2000/svg">
<path d="M11.789 12.7944C12.3345 12.7944 12.5575 12.429 12.5512 11.9709C12.5235 10.2456 13.1907 9.31683 14.3954 10.5273C15.7282 11.8665 16.0041 12.7944 17.6226 12.7944H20.4888C21.2125 12.7944 21.4973 12.5604 21.4973 12.1932C21.4973 11.4165 20.2246 10.0458 19.1462 9.03964C17.636 7.63115 17.5653 7.59785 18.8658 5.90228C20.4789 3.7972 22.5892 1.09994 20.7226 1.09994H17.1568C16.4654 1.09994 16.4152 1.49143 16.1689 2.07463C15.2777 4.1869 13.584 6.92286 12.9409 6.50437C12.2682 6.06787 12.5763 4.339 12.6274 1.76953C12.6408 1.09094 12.6372 0.625646 11.6054 0.384449C11.042 0.25395 10.4938 0.199951 9.98509 0.199951C7.9492 0.199951 6.54477 1.05764 7.34282 1.20704C8.74994 1.47073 8.61469 4.52979 8.28687 5.85098C7.71543 8.15135 5.56758 4.0294 4.67279 1.97653C4.45693 1.48333 4.39065 1.09994 3.62036 1.09994H0.704904C0.264227 1.09994 0 1.24394 0 1.56433C0 2.10613 2.65123 7.61225 5.18243 10.3572C7.65094 13.0347 10.0908 12.7944 11.789 12.7944Z" fill="#1946BA"/>
</svg>
