<svg width="22" height="21" viewBox="0 0 22 21" fill="none" xmlns="http://www.w3.org/2000/svg">
<path fill-rule="evenodd" clip-rule="evenodd" d="M11.2513 1.89263C14.1212 1.89263 14.4616 1.90313 15.5956 1.95388C18.5085 2.08337 19.8691 3.4335 20.0017 6.258C20.0536 7.36487 20.0635 7.69738 20.0635 10.5009C20.0635 13.3053 20.0527 13.6369 20.0017 14.7438C19.8682 17.5656 18.5112 18.9184 15.5956 19.0479C14.4616 19.0986 14.123 19.1091 11.2513 19.1091C8.38146 19.1091 8.04108 19.0986 6.90799 19.0479C3.98794 18.9175 2.6345 17.5613 2.50194 14.7429C2.44999 13.636 2.43924 13.3044 2.43924 10.5C2.43924 7.6965 2.45088 7.36487 2.50194 6.25712C2.6354 3.4335 3.99242 2.0825 6.90799 1.953C8.04198 1.90313 8.38146 1.89263 11.2513 1.89263ZM5.73191 10.5C5.73191 7.52238 8.20321 5.10825 11.2513 5.10825C14.2995 5.10825 16.7708 7.52238 16.7708 10.5C16.7708 13.4785 14.2995 15.8926 11.2513 15.8926C8.20321 15.8926 5.73191 13.4776 5.73191 10.5ZM15.6986 4.89562C15.6986 4.2 16.2763 3.63563 16.9893 3.63563C17.7014 3.63563 18.2783 4.2 18.2783 4.89562C18.2783 5.59125 17.7014 6.15562 16.9893 6.15562C16.2763 6.15562 15.6986 5.59125 15.6986 4.89562Z" fill="#1946BA"/>
<path fill-rule="evenodd" clip-rule="evenodd" d="M11.2513 1.89263C14.1212 1.89263 14.4616 1.90313 15.5956 1.95388C18.5085 2.08337 19.8691 3.4335 20.0017 6.258C20.0536 7.36487 20.0635 7.69738 20.0635 10.5009C20.0635 13.3053 20.0527 13.6369 20.0017 14.7438C19.8682 17.5656 18.5112 18.9184 15.5956 19.0479C14.4616 19.0986 14.123 19.1091 11.2513 19.1091C8.38146 19.1091 8.04108 19.0986 6.90799 19.0479C3.98794 18.9175 2.6345 17.5613 2.50194 14.7429C2.44999 13.636 2.43924 13.3044 2.43924 10.5C2.43924 7.6965 2.45088 7.36487 2.50194 6.25712C2.6354 3.4335 3.99242 2.0825 6.90799 1.953C8.04198 1.90313 8.38146 1.89263 11.2513 1.89263ZM11.2513 0C8.33219 0 7.96674 0.01225 6.82021 0.063C2.91666 0.238 0.747218 2.35375 0.568073 6.1705C0.515226 7.29137 0.502686 7.64838 0.502686 10.5C0.502686 13.3516 0.515226 13.7095 0.567178 14.8295C0.746322 18.6427 2.91218 20.762 6.81932 20.937C7.96674 20.9878 8.33219 21 11.2513 21C14.1705 21 14.5369 20.9878 15.6834 20.937C19.5834 20.762 21.7582 18.6462 21.9346 14.8295C21.9875 13.7095 22 13.3516 22 10.5C22 7.64838 21.9875 7.29137 21.9355 6.17137C21.76 2.36162 19.5914 0.238875 15.6843 0.063875C14.5369 0.01225 14.1705 0 11.2513 0Z" fill="#1946BA"/>
<path d="M11.2513 14C9.2727 14 7.66846 12.4338 7.66846 10.5C7.66846 8.56713 9.2727 7 11.2513 7C13.23 7 14.8342 8.56713 14.8342 10.5C14.8342 12.4338 13.23 14 11.2513 14Z" fill="#1946BA"/>
</svg>
