<svg width="86" height="86" viewBox="0 0 86 86" fill="none" xmlns="http://www.w3.org/2000/svg">
<g clip-path="url(#clip0_11_169)">
<path d="M81.5663 33.9379C81.1166 33.2375 80.8925 32.4163 80.9251 31.5844L81.2358 25.8084C81.4098 22.7225 79.737 19.8281 76.977 18.4378L71.862 15.8511C71.122 15.4804 70.5211 14.8802 70.1504 14.1395L67.5636 9.02446C66.1741 6.26448 63.2789 4.59163 60.193 4.7656L54.4171 5.07708C53.5837 5.12114 52.7586 4.89627 52.0635 4.43513L47.2797 1.28467C44.6838 -0.426922 41.3176 -0.426922 38.7225 1.28467L33.9379 4.43513C33.2375 4.88487 32.4163 5.10898 31.5844 5.07708L25.8084 4.7656C22.7225 4.59163 19.8281 6.26448 18.4378 9.02446L15.8511 14.1395C15.4804 14.8802 14.8802 15.4804 14.1395 15.8511L9.02446 18.4378C6.26448 19.8281 4.59163 22.7225 4.7656 25.8084L5.07708 31.5844C5.12342 32.4178 4.89855 33.2436 4.43513 33.9379L1.28467 38.7225C-0.426922 41.3176 -0.426922 44.6838 1.28467 47.2797L4.43513 52.0635C4.88487 52.764 5.10898 53.5852 5.07708 54.4171L4.7656 60.193C4.59163 63.2789 6.26448 66.1741 9.02446 67.5636L14.1395 70.1504C14.8802 70.5211 15.4804 71.122 15.8511 71.862L18.4378 76.977C19.8281 79.737 22.7225 81.4098 25.8084 81.2358L31.5844 80.9251C32.4178 80.8803 33.2428 81.1059 33.9379 81.5663L38.7225 84.7175C41.3176 86.4284 44.6838 86.4284 47.2797 84.7175L52.0635 81.5663C52.764 81.1166 53.5852 80.8925 54.4171 80.9251L60.193 81.2358C63.2789 81.4098 66.1741 79.737 67.5636 76.977L70.1504 71.862C70.5211 71.122 71.122 70.5211 71.862 70.1504L76.977 67.5636C79.737 66.1741 81.4098 63.2789 81.2358 60.193L80.9251 54.4171C80.878 53.5837 81.1029 52.7579 81.5663 52.0635L84.7175 47.2797C86.4284 44.6838 86.4284 41.3176 84.7175 38.7225L81.5663 33.9379ZM81.4691 45.1404L78.3186 49.9242C77.4024 51.3167 76.9595 52.9668 77.0545 54.6305L77.366 60.4073C77.4427 61.9525 76.6047 63.3989 75.2266 64.1024L70.1116 66.6884C68.6241 67.4367 67.4177 68.6439 66.6694 70.1314L64.0827 75.2456C63.383 76.6275 61.9342 77.467 60.3875 77.3849L54.6115 77.0742C52.9486 76.9884 51.3008 77.4305 49.9052 78.3384L45.1404 81.4691C43.8421 82.3252 42.1594 82.3252 40.8618 81.4691L36.0772 78.3186C34.8002 77.4814 33.3066 77.0355 31.7789 77.0355C31.636 77.0324 31.4932 77.0385 31.3512 77.0545L25.5752 77.366C24.03 77.4427 22.5828 76.6047 21.88 75.2266L19.2933 70.1116C18.545 68.6241 17.3386 67.4177 15.8511 66.6694L10.7361 64.0827C9.35416 63.383 8.51546 61.9342 8.59675 60.3875L8.90822 54.6115C8.99407 52.9486 8.55117 51.3008 7.64409 49.9052L4.53237 45.1404C3.6762 43.8421 3.6762 42.1594 4.53237 40.8618L7.68283 36.0772C8.59903 34.6847 9.04193 33.0346 8.94697 31.3709L8.63549 25.5949C8.55952 24.049 9.39671 22.6025 10.7748 21.8998L15.8898 19.313C17.3773 18.5647 18.5845 17.3576 19.332 15.8708L21.9188 10.7558C22.6185 9.37392 24.0672 8.53445 25.6139 8.6165L31.3899 8.92721C33.0529 9.01306 34.7007 8.57092 36.097 7.66308L40.8618 4.53237C42.1594 3.6762 43.8421 3.6762 45.1404 4.53237L49.9242 7.68283C51.3167 8.59903 52.9668 9.04193 54.6305 8.94697L60.4073 8.63549C61.9525 8.55952 63.3989 9.39671 64.1024 10.7748L66.6884 15.8898C67.4367 17.3773 68.6439 18.5845 70.1314 19.332L75.2456 21.9188C76.6275 22.6185 77.467 24.0672 77.3849 25.6139L77.0742 31.3899C76.9884 33.0529 77.4305 34.7007 78.3384 36.097L81.4888 40.8808C82.329 42.1783 82.3214 43.8504 81.4691 45.1404Z" fill="#1946BA"/>
<path d="M35.4345 42.1054C39.119 42.1054 42.1054 39.119 42.1054 35.4345C42.1054 31.7507 39.119 28.7636 35.4345 28.7636C31.7507 28.7636 28.7636 31.7507 28.7636 35.4345C28.7697 39.116 31.753 42.0993 35.4345 42.1054ZM35.4345 32.6343C36.9706 32.6343 38.2157 33.8794 38.2157 35.4155C38.2157 36.9509 36.9706 38.196 35.4345 38.196C33.8984 38.196 32.6533 36.9509 32.6533 35.4155C32.6533 33.8794 33.8984 32.6343 35.4345 32.6343Z" fill="#1946BA"/>
<path d="M50.5654 43.8945C46.8808 43.8945 43.8945 46.8808 43.8945 50.5654C43.8945 54.2491 46.8808 57.2363 50.5654 57.2363C54.2491 57.2363 57.2363 54.2491 57.2363 50.5654C57.2302 46.8839 54.2469 43.9005 50.5654 43.8945ZM50.5654 53.3656C49.0293 53.3656 47.7841 52.1205 47.7841 50.5851C47.7841 49.049 49.0293 47.8039 50.5654 47.8039C52.1015 47.8039 53.3466 49.049 53.3466 50.5851C53.3466 52.1205 52.1015 53.3656 50.5654 53.3656Z" fill="#1946BA"/>
<path d="M55.4859 30.5139C55.122 30.15 54.629 29.9457 54.1147 29.9457C53.6003 29.9457 53.1065 30.15 52.7434 30.5139L31.1559 52.1015C30.792 52.4654 30.5869 52.9584 30.5869 53.4727C30.5869 53.987 30.792 54.4808 31.1559 54.844C31.5205 55.2117 32.0189 55.4153 32.537 55.4077C33.0529 55.4061 33.5482 55.2033 33.9174 54.844L55.5049 33.2564C56.2486 32.4907 56.2395 31.2698 55.4859 30.5139Z" fill="#1946BA"/>
</g>
<defs>
<clipPath id="clip0_11_169">
<rect width="86" height="86" fill="white"/>
</clipPath>
</defs>
</svg>
