<svg width="24" height="24" viewBox="0 0 24 24" fill="none" xmlns="http://www.w3.org/2000/svg">
<path d="M12.001 16C9.79198 16 8.00098 14.21 8.00098 12C8.00098 9.791 9.79198 8 12.001 8C14.21 8 16.001 9.791 16.001 12C16.001 14.21 14.21 16 12.001 16Z" fill="white"/>
<path fill-rule="evenodd" clip-rule="evenodd" d="M12.001 2.163C15.205 2.163 15.585 2.175 16.851 2.233C20.103 2.381 21.622 3.924 21.77 7.152C21.828 8.417 21.839 8.797 21.839 12.001C21.839 15.206 21.827 15.585 21.77 16.85C21.621 20.075 20.106 21.621 16.851 21.769C15.585 21.827 15.207 21.839 12.001 21.839C8.79698 21.839 8.41698 21.827 7.15198 21.769C3.89198 21.62 2.38098 20.07 2.23298 16.849C2.17498 15.584 2.16298 15.205 2.16298 12C2.16298 8.796 2.17598 8.417 2.23298 7.151C2.38198 3.924 3.89698 2.38 7.15198 2.232C8.41798 2.175 8.79698 2.163 12.001 2.163ZM5.83898 12C5.83898 8.597 8.59798 5.838 12.001 5.838C15.404 5.838 18.163 8.597 18.163 12C18.163 15.404 15.404 18.163 12.001 18.163C8.59798 18.163 5.83898 15.403 5.83898 12ZM16.966 5.595C16.966 4.8 17.611 4.155 18.407 4.155C19.202 4.155 19.846 4.8 19.846 5.595C19.846 6.39 19.202 7.035 18.407 7.035C17.611 7.035 16.966 6.39 16.966 5.595Z" fill="white"/>
<path fill-rule="evenodd" clip-rule="evenodd" d="M12.001 2.163C15.205 2.163 15.585 2.175 16.851 2.233C20.103 2.381 21.622 3.924 21.77 7.152C21.828 8.417 21.839 8.797 21.839 12.001C21.839 15.206 21.827 15.585 21.77 16.85C21.621 20.075 20.106 21.621 16.851 21.769C15.585 21.827 15.207 21.839 12.001 21.839C8.79698 21.839 8.41698 21.827 7.15198 21.769C3.89198 21.62 2.38098 20.07 2.23298 16.849C2.17498 15.584 2.16298 15.205 2.16298 12C2.16298 8.796 2.17598 8.417 2.23298 7.151C2.38198 3.924 3.89698 2.38 7.15198 2.232C8.41798 2.175 8.79698 2.163 12.001 2.163ZM12.001 0C8.74198 0 8.33398 0.014 7.05398 0.072C2.69598 0.272 0.273977 2.69 0.0739766 7.052C0.0149766 8.333 0.000976562 8.741 0.000976562 12C0.000976562 15.259 0.0149766 15.668 0.0729766 16.948C0.272977 21.306 2.69098 23.728 7.05298 23.928C8.33398 23.986 8.74198 24 12.001 24C15.26 24 15.669 23.986 16.949 23.928C21.303 23.728 23.731 21.31 23.928 16.948C23.987 15.668 24.001 15.259 24.001 12C24.001 8.741 23.987 8.333 23.929 7.053C23.733 2.699 21.312 0.273 16.95 0.073C15.669 0.014 15.26 0 12.001 0Z" fill="white"/>
</svg>
