<svg width="80" height="69" viewBox="0 0 80 69" fill="none" xmlns="http://www.w3.org/2000/svg">
<path d="M36.9994 29.6621L41.5966 34.2933C41.9152 34.6185 42.3502 34.8027 42.8051 34.8041C43.2568 34.8007 43.6897 34.6238 44.0143 34.3106L52.2045 26.1204C52.8669 25.4579 52.8669 24.3824 52.2045 23.72C51.5414 23.0569 50.4665 23.0569 49.8034 23.72L42.8224 30.701L39.4344 27.2783C38.7759 26.6059 37.6971 26.5946 37.0247 27.2531C36.3523 27.9109 36.3409 28.9897 36.9994 29.6621Z" fill="#1946BA"/>
<path d="M78.3233 11.5964H15.8176L15.3068 8.60006C14.4814 3.68823 10.2247 0.0946407 5.24439 0.103287H1.70268C0.762216 0.103287 0 0.866168 0 1.80597C0 2.74643 0.762216 3.50865 1.70268 3.50865H5.2271C8.54999 3.50133 11.3893 5.90105 11.9361 9.17871L19.9553 56.0709C19.6054 57.0367 19.4265 58.057 19.4279 59.0845C19.4259 63.7363 22.9616 67.6265 27.5921 68.0675C32.2232 68.5085 36.4294 65.3559 37.306 60.7872H52.6468C53.5287 65.3492 57.7329 68.4939 62.358 68.0509C66.9832 67.6079 70.5143 63.7224 70.5143 59.0759C70.5143 54.4294 66.9832 50.5445 62.358 50.1016C57.7329 49.6586 53.5287 52.8032 52.6468 57.3646H37.306C36.7008 54.2459 34.4999 51.6752 31.5122 50.5964C28.5239 49.5176 25.1884 50.0903 22.7308 52.1036L21.6919 46.059H63.1695C67.7508 46.0431 71.7667 42.9929 73.0111 38.5839L79.9409 13.7247C80.0792 13.2133 79.9721 12.6659 79.6516 12.2435C79.3376 11.8285 78.8441 11.5877 78.3233 11.5964ZM61.5007 53.4823C64.6041 53.4823 67.1196 55.9984 67.1196 59.1012C67.1196 62.2046 64.6041 64.72 61.5007 64.72C58.3973 64.72 55.8819 62.2046 55.8819 59.1012C55.8852 55.9998 58.3986 53.4857 61.5007 53.4823ZM28.4687 53.4823C31.5721 53.4823 34.0875 55.9984 34.0875 59.1012C34.0875 62.2046 31.5721 64.72 28.4687 64.72C25.3653 64.72 22.8498 62.2046 22.8498 59.1012C22.8512 58.4201 22.9782 57.7444 23.2243 57.1092C23.2769 57.0047 23.3227 56.8963 23.3607 56.7859C24.2619 54.7726 26.2632 53.4783 28.4687 53.4823ZM69.7587 37.6986C68.934 40.6397 66.2576 42.6763 63.2034 42.6876H21.1305L16.397 15.0017H76.0759L69.7587 37.6986Z" fill="#1946BA"/>
</svg>
