<svg width="78" height="80" viewBox="0 0 78 80" fill="none" xmlns="http://www.w3.org/2000/svg">
<path d="M32.7964 26.9822C31.2107 26.9795 29.9255 25.6943 29.9228 24.1086C29.9228 23.1581 29.1525 22.3878 28.202 22.3878C27.2515 22.3878 26.4812 23.1581 26.4812 24.1086C26.4845 26.9318 28.36 29.4108 31.0756 30.1825V31.5766C31.0756 32.5271 31.8459 33.2974 32.7964 33.2974C33.7469 33.2974 34.5172 32.5271 34.5172 31.5766V30.1825C37.5501 29.3241 39.4847 26.3605 39.0511 23.2388C38.6175 20.1165 35.9483 17.7927 32.7964 17.7927C31.2094 17.7927 29.9228 16.5062 29.9228 14.9191C29.9228 13.3321 31.2094 12.0455 32.7964 12.0455C34.3834 12.0455 35.67 13.3321 35.67 14.9191C35.67 15.8696 36.441 16.6399 37.3908 16.6399C38.3413 16.6399 39.1116 15.8696 39.1116 14.9191C39.1082 12.096 37.2335 9.61693 34.5172 8.84459V7.81211C34.5172 6.86231 33.7469 6.09131 32.7964 6.09131C31.8459 6.09131 31.0756 6.86231 31.0756 7.81211V8.84459C28.0434 9.70364 26.1081 12.6673 26.5417 15.789C26.9752 18.9106 29.6445 21.235 32.7964 21.2343C34.3834 21.2343 35.67 22.5209 35.67 24.1086C35.67 25.6957 34.3834 26.9822 32.7964 26.9822Z" fill="#1946BA"/>
<path d="M68.1588 23.7813V7.1756C68.1555 3.2144 64.9444 0.00403313 60.9832 0H16.1564C12.3532 0 9.23891 3.06316 9.23891 6.83144L8.98079 50.2131H2.08011C1.13099 50.2158 0.362003 50.9848 0.359314 51.9339V59.3851C0.370069 64.2242 4.1807 68.2015 9.01507 68.4193V68.4361H47.6988V68.4193C47.8709 68.4361 48.043 68.4361 48.215 68.4361C53.2114 68.43 57.26 64.3814 57.266 59.3851V25.4853H66.438C66.8938 25.4934 67.3341 25.3173 67.6581 24.9966C67.9821 24.6753 68.1629 24.2377 68.1588 23.7813ZM3.80091 59.4019V53.6715H39.1634V59.4019C39.1654 61.44 39.8571 63.4169 41.1255 65.012H9.41099C6.31288 65.0113 3.80159 62.5 3.80091 59.4019ZM53.8244 7.1756V59.4019C53.8244 62.5 51.3132 65.012 48.215 65.012C45.1169 65.012 42.605 62.5 42.605 59.4019V51.9507C42.6023 51.0016 41.8333 50.2326 40.8842 50.2299H12.4392L12.6973 6.84892C12.7168 4.94797 14.2729 3.42278 16.1739 3.4416H54.8919C54.1908 4.56079 53.8211 5.85543 53.8244 7.1756ZM57.266 22.0605V7.1756C57.266 5.11333 58.9384 3.4416 61.0007 3.4416C63.063 3.4416 64.7347 5.11333 64.7347 7.1756V22.0605H57.266Z" fill="#1946BA"/>
<path d="M46.46 36.3264H19.0132C18.0627 36.3264 17.2924 37.0968 17.2924 38.0472C17.2924 38.997 18.0627 39.768 19.0132 39.768H46.4768C47.4272 39.7633 48.1935 38.989 48.1888 38.0385C48.1841 37.088 47.4098 36.3217 46.46 36.3264Z" fill="#1946BA"/>
<path d="M35.6189 43.3643H19.0132C18.0627 43.3643 17.2924 44.1346 17.2924 45.0851C17.2924 46.0355 18.0627 46.8059 19.0132 46.8059H35.6189C36.5687 46.8059 37.3397 46.0355 37.3397 45.0851C37.3397 44.1346 36.5687 43.3643 35.6189 43.3643Z" fill="#1946BA"/>
<path d="M70.9121 31.043C67.2077 31.0477 64.2057 34.0497 64.201 37.7541V67.5757C64.1983 67.6395 64.2043 67.7034 64.2185 67.7652V67.7995C64.2185 67.8513 64.2353 67.8856 64.2353 67.9373C64.2332 67.9561 64.2393 67.975 64.2527 67.9891C64.2622 68.0294 64.2736 68.0697 64.287 68.1094C64.287 68.1262 64.3045 68.1437 64.3045 68.1612C64.3213 68.1954 64.3388 68.2472 64.3563 68.2815C64.3563 68.2909 64.3637 68.2983 64.3731 68.2983L69.4494 79.019C69.7351 79.6159 70.3367 79.9964 70.9981 79.9997H71.0156C71.6824 79.9991 72.2874 79.6092 72.5643 79.0022L77.4686 68.2815V68.264C77.4854 68.2297 77.5029 68.178 77.5204 68.1437C77.5217 68.1309 77.5278 68.1188 77.5372 68.1094C77.5567 68.0657 77.5688 68.0193 77.5715 67.9716C77.5715 67.9541 77.5715 67.9541 77.5889 67.9373C77.6031 67.8869 77.6091 67.8345 77.6064 67.782V67.7478C77.6064 67.696 77.6232 67.6274 77.6232 67.5589V37.7541C77.6185 34.0497 74.6165 31.0477 70.9121 31.043ZM67.6426 65.8549V43.0886H74.1816V65.8549H67.6426ZM70.9121 34.4846C72.7183 34.4839 74.1823 35.9486 74.1816 37.7541V39.647H67.6426V37.7541C67.6419 35.9486 69.1059 34.4839 70.9121 34.4846ZM70.9813 74.2008L68.6583 69.2797H73.2352L70.9813 74.2008Z" fill="#1946BA"/>
</svg>
