<svg width="80" height="56" viewBox="0 0 80 56" fill="none" xmlns="http://www.w3.org/2000/svg">
<path d="M76.2473 22.161L66.3455 12.9967C64.1799 10.9928 61.3376 9.87959 58.3874 9.8809H53.3278V8.85865C53.3259 4.233 49.5765 0.483653 44.9509 0.481689H8.37696C3.75131 0.483653 0.00196336 4.233 0 8.85865V46.3704C0.0026178 47.2951 0.751308 48.0432 1.67539 48.0458H6.90248C7.62565 52.3311 11.3364 55.4679 15.6819 55.4679C20.0268 55.4679 23.7375 52.3311 24.4607 48.0458H55.6564C56.3795 52.3311 60.0903 55.4679 64.4358 55.4679C68.7807 55.4679 72.4914 52.3311 73.2146 48.0458H78.3245C79.2486 48.0432 79.9973 47.2951 79.9999 46.3704V30.7729C80.011 27.5033 78.6498 24.3789 76.2473 22.161ZM73.9685 24.6243H64.0503V15.4431L64.0667 15.4594L73.9685 24.6243ZM8.37696 3.83247H44.9509C47.7231 3.84033 49.9685 6.0864 49.977 8.85865V28.2762H3.35078V8.85865C3.35864 6.0864 5.60471 3.84033 8.37696 3.83247ZM15.6819 52.1171C12.6191 52.1171 10.1361 49.6341 10.1361 46.572C10.1361 43.5091 12.6191 41.0262 15.6819 41.0262C18.7441 41.0262 21.2271 43.5091 21.2271 46.572C21.2238 49.6328 18.7428 52.1138 15.6819 52.1171ZM15.6819 37.6584C11.4843 37.6642 7.85863 40.5936 6.96989 44.695H3.35078V31.6269H49.977V44.695H24.394C23.5098 40.5903 19.8809 37.659 15.6819 37.6584ZM64.4358 52.1171C61.373 52.1171 58.89 49.6341 58.89 46.572C58.89 43.5091 61.373 41.0262 64.4358 41.0262C67.498 41.0262 69.9809 43.5091 69.9809 46.572C69.9777 49.6328 67.4967 52.1138 64.4358 52.1171ZM76.6662 44.695H73.1478C72.2643 40.5903 68.6348 37.6584 64.4358 37.6584C60.2362 37.6584 56.6066 40.5903 55.7238 44.695H53.3278V13.2317H58.3874C59.1688 13.235 59.9463 13.3423 60.6995 13.5497V24.6243C60.7048 26.4725 62.2022 27.9692 64.0503 27.9751H76.1799C76.5025 28.8724 76.6668 29.8194 76.6662 30.7729V44.695Z" fill="#1946BA"/>
</svg>
