<svg width="81" height="66" viewBox="0 0 81 66" fill="none" xmlns="http://www.w3.org/2000/svg">
<path d="M72.9984 0.67334H14.113C9.69509 0.675215 6.11414 4.25617 6.11226 8.67408V33.8283C0.741144 39.5119 -0.530223 47.9358 2.92447 54.9508C6.37916 61.9665 13.8311 66.095 21.6106 65.303C29.39 64.5111 35.8575 58.9656 37.8271 51.398H72.9984C77.4163 51.3968 80.9979 47.8152 80.9992 43.3973V8.67408C80.9979 4.25617 77.4163 0.675215 72.9984 0.67334ZM9.31256 15.0747H77.7989V22.1153H9.31256V15.0747ZM14.113 3.87363H72.9984C75.6468 3.88113 77.7914 6.02633 77.7989 8.67408V11.8744H9.31256V8.67408C9.31506 6.02383 11.4628 3.87551 14.113 3.87363ZM19.7135 62.1834C11.1415 62.1834 4.19209 55.234 4.19209 46.6619C4.19209 38.0893 11.1415 31.1405 19.7135 31.1405C28.2862 31.1405 35.2349 38.0893 35.2349 46.6619C35.2268 55.2302 28.2824 62.1752 19.7135 62.1834ZM72.9984 48.1977H38.3715C38.4196 47.702 38.4352 47.1895 38.4352 46.6776C38.4415 39.7669 34.6374 33.4163 28.5418 30.161C22.4463 26.9058 15.0525 27.2758 9.31256 31.1243V25.3156H77.7989V43.3973C77.7914 46.0456 75.6468 48.1902 72.9984 48.1977Z" fill="#1946BA"/>
<path d="M65.0783 31.4605C62.7256 31.4599 60.5679 32.7675 59.4778 34.8527C58.1295 32.2737 55.1949 30.9486 52.369 31.6424C49.5431 32.3368 47.556 34.8708 47.556 37.7811C47.556 40.6907 49.5431 43.2247 52.369 43.9191C55.1949 44.6129 58.1295 43.2878 59.4778 40.7088C60.9148 43.4572 64.1326 44.7567 67.0747 43.7779C70.0169 42.799 71.8145 39.8306 71.3182 36.7697C70.8226 33.7088 68.1792 31.4599 65.0783 31.4605ZM53.8772 40.9014C52.614 40.9007 51.4751 40.1388 50.9932 38.9712C50.5113 37.8029 50.7807 36.4597 51.6764 35.569C52.5727 34.6777 53.9172 34.4145 55.0823 34.9027C56.2481 35.3909 57.0044 36.5335 56.9975 37.7967C56.9925 39.515 55.5961 40.9045 53.8772 40.9014ZM65.0783 40.9014C63.815 40.9007 62.6762 40.1388 62.1943 38.9712C61.7123 37.8029 61.9817 36.4597 62.8774 35.569C63.7738 34.6777 65.1183 34.4145 66.2834 34.9027C67.4491 35.3909 68.2054 36.5335 68.1986 37.7967C68.1936 39.515 66.7972 40.9045 65.0783 40.9014Z" fill="#1946BA"/>
<path d="M19.7141 39.5569C21.1893 39.5594 22.3837 40.7545 22.3862 42.229C22.3862 43.1128 23.1032 43.8292 23.9864 43.8292C24.8702 43.8292 25.5865 43.1128 25.5865 42.229C25.5834 39.6038 23.8401 37.2986 21.3143 36.581V35.6209C21.3143 34.7371 20.598 34.0208 19.7141 34.0208C18.8303 34.0208 18.114 34.7371 18.114 35.6209V36.581C15.2943 37.3792 13.4948 40.1351 13.898 43.0378C14.3011 45.9406 16.7832 48.1021 19.7141 48.1021C21.1899 48.1021 22.3862 49.2984 22.3862 50.7742C22.3862 52.2499 21.1899 53.4463 19.7141 53.4463C18.2384 53.4463 17.042 52.2499 17.042 50.7742C17.042 49.8903 16.3257 49.174 15.4419 49.174C14.558 49.174 13.8417 49.8903 13.8417 50.7742C13.8448 53.3994 15.5887 55.7046 18.114 56.4228V57.7186C18.114 58.6024 18.8303 59.3187 19.7141 59.3187C20.598 59.3187 21.3143 58.6024 21.3143 57.7186V56.4228C24.1345 55.624 25.9334 52.8681 25.5303 49.9653C25.1271 47.0626 22.645 44.9011 19.7141 44.9018C18.2384 44.9018 17.042 43.7048 17.042 42.229C17.042 40.7532 18.2384 39.5569 19.7141 39.5569Z" fill="#1946BA"/>
</svg>
