<svg width="24" height="14" viewBox="0 0 24 14" fill="none" xmlns="http://www.w3.org/2000/svg">
<path d="M13.162 13.994C13.771 13.994 14.02 13.588 14.013 13.079C13.982 11.162 14.727 10.13 16.072 11.475C17.56 12.963 17.868 13.994 19.675 13.994H22.875C23.683 13.994 24.001 13.734 24.001 13.326C24.001 12.463 22.58 10.94 21.376 9.822C19.69 8.257 19.611 8.22 21.063 6.336C22.864 3.997 25.22 1 23.136 1H19.155C18.383 1 18.327 1.435 18.052 2.083C17.057 4.43 15.166 7.47 14.448 7.005C13.697 6.52 14.041 4.599 14.098 1.744C14.113 0.99 14.109 0.473 12.957 0.205C12.328 0.0599999 11.716 0 11.148 0C8.875 0 7.307 0.953 8.198 1.119C9.769 1.412 9.618 4.811 9.252 6.279C8.614 8.835 6.216 4.255 5.217 1.974C4.976 1.426 4.902 1 4.042 1H0.787C0.295 1 0 1.16 0 1.516C0 2.118 2.96 8.236 5.786 11.286C8.542 14.261 11.266 13.994 13.162 13.994Z" fill="white"/>
</svg>
